<?xml version="1.0" encoding="UTF-8"?>
<svg xmlns="http://www.w3.org/2000/svg" width="340" height="103" viewBox="0 0 340 103" shape-rendering="crispEdges">
<title>menu.bmp</title>
<rect x="6" y="5" width="22" height="1" fill="#96aadc"/>
<rect x="31" y="5" width="22" height="1" fill="#96aadc"/>
<rect x="55" y="5" width="23" height="1" fill="#96aadc"/>
<rect x="80" y="5" width="22" height="1" fill="#96aadc"/>
<rect x="104" y="5" width="22" height="1" fill="#96aadc"/>
<rect x="129" y="5" width="23" height="1" fill="#96aadc"/>
<rect x="6" y="6" width="23" height="1" fill="#96aadc"/>
<rect x="31" y="6" width="23" height="1" fill="#96aadc"/>
<rect x="55" y="6" width="23" height="1" fill="#96aadc"/>
<rect x="80" y="6" width="23" height="1" fill="#96aadc"/>
<rect x="104" y="6" width="23" height="1" fill="#96aadc"/>
<rect x="129" y="6" width="23" height="1" fill="#96aadc"/>
<rect x="6" y="7" width="3" height="1" fill="#96aadc"/>
<rect x="26" y="7" width="3" height="1" fill="#96aadc"/>
<rect x="31" y="7" width="3" height="1" fill="#96aadc"/>
<rect x="51" y="7" width="3" height="1" fill="#96aadc"/>
<rect x="55" y="7" width="3" height="1" fill="#96aadc"/>
<rect x="80" y="7" width="3" height="1" fill="#96aadc"/>
<rect x="100" y="7" width="3" height="1" fill="#96aadc"/>
<rect x="104" y="7" width="3" height="1" fill="#96aadc"/>
<rect x="124" y="7" width="3" height="1" fill="#96aadc"/>
<rect x="129" y="7" width="3" height="1" fill="#96aadc"/>
<rect x="6" y="8" width="23" height="1" fill="#96aadc"/>
<rect x="31" y="8" width="23" height="1" fill="#96aadc"/>
<rect x="55" y="8" width="3" height="1" fill="#96aadc"/>
<rect x="80" y="8" width="23" height="1" fill="#96aadc"/>
<rect x="104" y="8" width="3" height="1" fill="#96aadc"/>
<rect x="124" y="8" width="3" height="1" fill="#96aadc"/>
<rect x="129" y="8" width="23" height="1" fill="#96aadc"/>
<rect x="6" y="9" width="23" height="1" fill="#96aadc"/>
<rect x="31" y="9" width="22" height="1" fill="#96aadc"/>
<rect x="55" y="9" width="3" height="1" fill="#96aadc"/>
<rect x="80" y="9" width="23" height="1" fill="#96aadc"/>
<rect x="104" y="9" width="3" height="1" fill="#96aadc"/>
<rect x="124" y="9" width="3" height="1" fill="#96aadc"/>
<rect x="129" y="9" width="23" height="1" fill="#96aadc"/>
<rect x="6" y="10" width="3" height="1" fill="#96aadc"/>
<rect x="26" y="10" width="3" height="1" fill="#96aadc"/>
<rect x="31" y="10" width="3" height="1" fill="#96aadc"/>
<rect x="50" y="10" width="2" height="1" fill="#96aadc"/>
<rect x="55" y="10" width="3" height="1" fill="#96aadc"/>
<rect x="80" y="10" width="3" height="1" fill="#96aadc"/>
<rect x="100" y="10" width="3" height="1" fill="#96aadc"/>
<rect x="104" y="10" width="3" height="1" fill="#96aadc"/>
<rect x="124" y="10" width="3" height="1" fill="#96aadc"/>
<rect x="129" y="10" width="3" height="1" fill="#96aadc"/>
<rect x="6" y="11" width="3" height="1" fill="#96aadc"/>
<rect x="26" y="11" width="3" height="1" fill="#96aadc"/>
<rect x="31" y="11" width="3" height="1" fill="#96aadc"/>
<rect x="50" y="11" width="3" height="1" fill="#96aadc"/>
<rect x="55" y="11" width="23" height="1" fill="#96aadc"/>
<rect x="80" y="11" width="3" height="1" fill="#96aadc"/>
<rect x="100" y="11" width="3" height="1" fill="#96aadc"/>
<rect x="104" y="11" width="23" height="1" fill="#96aadc"/>
<rect x="129" y="11" width="23" height="1" fill="#96aadc"/>
<rect x="6" y="12" width="3" height="1" fill="#96aadc"/>
<rect x="26" y="12" width="3" height="1" fill="#96aadc"/>
<rect x="31" y="12" width="3" height="1" fill="#96aadc"/>
<rect x="51" y="12" width="3" height="1" fill="#96aadc"/>
<rect x="55" y="12" width="23" height="1" fill="#96aadc"/>
<rect x="80" y="12" width="3" height="1" fill="#96aadc"/>
<rect x="100" y="12" width="3" height="1" fill="#96aadc"/>
<rect x="104" y="12" width="22" height="1" fill="#96aadc"/>
<rect x="129" y="12" width="23" height="1" fill="#96aadc"/>
<rect x="6" y="19" width="23" height="1" fill="#96aadc"/>
<rect x="31" y="19" width="22" height="1" fill="#96aadc"/>
<rect x="55" y="19" width="22" height="1" fill="#96aadc"/>
<rect x="80" y="19" width="3" height="1" fill="#96aadc"/>
<rect x="104" y="19" width="23" height="1" fill="#96aadc"/>
<rect x="129" y="19" width="23" height="1" fill="#96aadc"/>
<rect x="153" y="19" width="23" height="1" fill="#96aadc"/>
<rect x="188" y="19" width="22" height="1" fill="#96aadc"/>
<rect x="214" y="19" width="21" height="1" fill="#96aadc"/>
<rect x="237" y="19" width="22" height="1" fill="#96aadc"/>
<rect x="262" y="19" width="22" height="1" fill="#96aadc"/>
<rect x="286" y="19" width="22" height="1" fill="#96aadc"/>
<rect x="311" y="19" width="3" height="1" fill="#96aadc"/>
<rect x="6" y="20" width="23" height="1" fill="#96aadc"/>
<rect x="31" y="20" width="23" height="1" fill="#96aadc"/>
<rect x="55" y="20" width="23" height="1" fill="#96aadc"/>
<rect x="80" y="20" width="3" height="1" fill="#96aadc"/>
<rect x="104" y="20" width="23" height="1" fill="#96aadc"/>
<rect x="129" y="20" width="23" height="1" fill="#96aadc"/>
<rect x="153" y="20" width="23" height="1" fill="#96aadc"/>
<rect x="188" y="20" width="23" height="1" fill="#96aadc"/>
<rect x="213" y="20" width="23" height="1" fill="#96aadc"/>
<rect x="237" y="20" width="23" height="1" fill="#96aadc"/>
<rect x="262" y="20" width="23" height="1" fill="#96aadc"/>
<rect x="286" y="20" width="23" height="1" fill="#96aadc"/>
<rect x="311" y="20" width="3" height="1" fill="#96aadc"/>
<rect x="6" y="21" width="3" height="1" fill="#96aadc"/>
<rect x="31" y="21" width="3" height="1" fill="#96aadc"/>
<rect x="51" y="21" width="3" height="1" fill="#96aadc"/>
<rect x="55" y="21" width="3" height="1" fill="#96aadc"/>
<rect x="75" y="21" width="3" height="1" fill="#96aadc"/>
<rect x="80" y="21" width="3" height="1" fill="#96aadc"/>
<rect x="104" y="21" width="3" height="1" fill="#96aadc"/>
<rect x="129" y="21" width="3" height="1" fill="#96aadc"/>
<rect x="153" y="21" width="3" height="1" fill="#96aadc"/>
<rect x="188" y="21" width="3" height="1" fill="#96aadc"/>
<rect x="208" y="21" width="3" height="1" fill="#96aadc"/>
<rect x="213" y="21" width="3" height="1" fill="#96aadc"/>
<rect x="233" y="21" width="3" height="1" fill="#96aadc"/>
<rect x="237" y="21" width="3" height="1" fill="#96aadc"/>
<rect x="257" y="21" width="3" height="1" fill="#96aadc"/>
<rect x="262" y="21" width="3" height="1" fill="#96aadc"/>
<rect x="272" y="21" width="3" height="1" fill="#96aadc"/>
<rect x="282" y="21" width="3" height="1" fill="#96aadc"/>
<rect x="286" y="21" width="3" height="1" fill="#96aadc"/>
<rect x="306" y="21" width="3" height="1" fill="#96aadc"/>
<rect x="311" y="21" width="3" height="1" fill="#96aadc"/>
<rect x="6" y="22" width="23" height="1" fill="#96aadc"/>
<rect x="31" y="22" width="3" height="1" fill="#96aadc"/>
<rect x="51" y="22" width="3" height="1" fill="#96aadc"/>
<rect x="55" y="22" width="3" height="1" fill="#96aadc"/>
<rect x="75" y="22" width="3" height="1" fill="#96aadc"/>
<rect x="80" y="22" width="3" height="1" fill="#96aadc"/>
<rect x="104" y="22" width="23" height="1" fill="#96aadc"/>
<rect x="129" y="22" width="22" height="1" fill="#96aadc"/>
<rect x="153" y="22" width="22" height="1" fill="#96aadc"/>
<rect x="188" y="22" width="3" height="1" fill="#96aadc"/>
<rect x="208" y="22" width="3" height="1" fill="#96aadc"/>
<rect x="213" y="22" width="3" height="1" fill="#96aadc"/>
<rect x="233" y="22" width="3" height="1" fill="#96aadc"/>
<rect x="237" y="22" width="23" height="1" fill="#96aadc"/>
<rect x="262" y="22" width="3" height="1" fill="#96aadc"/>
<rect x="272" y="22" width="3" height="1" fill="#96aadc"/>
<rect x="282" y="22" width="3" height="1" fill="#96aadc"/>
<rect x="286" y="22" width="23" height="1" fill="#96aadc"/>
<rect x="311" y="22" width="3" height="1" fill="#96aadc"/>
<rect x="6" y="23" width="23" height="1" fill="#96aadc"/>
<rect x="31" y="23" width="3" height="1" fill="#96aadc"/>
<rect x="51" y="23" width="3" height="1" fill="#96aadc"/>
<rect x="55" y="23" width="3" height="1" fill="#96aadc"/>
<rect x="75" y="23" width="3" height="1" fill="#96aadc"/>
<rect x="80" y="23" width="3" height="1" fill="#96aadc"/>
<rect x="104" y="23" width="23" height="1" fill="#96aadc"/>
<rect x="129" y="23" width="23" height="1" fill="#96aadc"/>
<rect x="153" y="23" width="23" height="1" fill="#96aadc"/>
<rect x="188" y="23" width="3" height="1" fill="#96aadc"/>
<rect x="208" y="23" width="3" height="1" fill="#96aadc"/>
<rect x="213" y="23" width="3" height="1" fill="#96aadc"/>
<rect x="233" y="23" width="3" height="1" fill="#96aadc"/>
<rect x="237" y="23" width="22" height="1" fill="#96aadc"/>
<rect x="262" y="23" width="3" height="1" fill="#96aadc"/>
<rect x="272" y="23" width="3" height="1" fill="#96aadc"/>
<rect x="282" y="23" width="3" height="1" fill="#96aadc"/>
<rect x="286" y="23" width="23" height="1" fill="#96aadc"/>
<rect x="311" y="23" width="3" height="1" fill="#96aadc"/>
<rect x="6" y="24" width="3" height="1" fill="#96aadc"/>
<rect x="31" y="24" width="3" height="1" fill="#96aadc"/>
<rect x="51" y="24" width="3" height="1" fill="#96aadc"/>
<rect x="55" y="24" width="3" height="1" fill="#96aadc"/>
<rect x="75" y="24" width="3" height="1" fill="#96aadc"/>
<rect x="80" y="24" width="3" height="1" fill="#96aadc"/>
<rect x="104" y="24" width="3" height="1" fill="#96aadc"/>
<rect x="149" y="24" width="3" height="1" fill="#96aadc"/>
<rect x="173" y="24" width="3" height="1" fill="#96aadc"/>
<rect x="188" y="24" width="3" height="1" fill="#96aadc"/>
<rect x="208" y="24" width="3" height="1" fill="#96aadc"/>
<rect x="213" y="24" width="3" height="1" fill="#96aadc"/>
<rect x="233" y="24" width="3" height="1" fill="#96aadc"/>
<rect x="237" y="24" width="3" height="1" fill="#96aadc"/>
<rect x="255" y="24" width="3" height="1" fill="#96aadc"/>
<rect x="262" y="24" width="3" height="1" fill="#96aadc"/>
<rect x="272" y="24" width="3" height="1" fill="#96aadc"/>
<rect x="282" y="24" width="3" height="1" fill="#96aadc"/>
<rect x="286" y="24" width="3" height="1" fill="#96aadc"/>
<rect x="306" y="24" width="3" height="1" fill="#96aadc"/>
<rect x="311" y="24" width="3" height="1" fill="#96aadc"/>
<rect x="6" y="25" width="23" height="1" fill="#96aadc"/>
<rect x="31" y="25" width="3" height="1" fill="#96aadc"/>
<rect x="51" y="25" width="3" height="1" fill="#96aadc"/>
<rect x="55" y="25" width="23" height="1" fill="#96aadc"/>
<rect x="80" y="25" width="23" height="1" fill="#96aadc"/>
<rect x="104" y="25" width="23" height="1" fill="#96aadc"/>
<rect x="129" y="25" width="23" height="1" fill="#96aadc"/>
<rect x="153" y="25" width="23" height="1" fill="#96aadc"/>
<rect x="188" y="25" width="3" height="1" fill="#96aadc"/>
<rect x="208" y="25" width="3" height="1" fill="#96aadc"/>
<rect x="213" y="25" width="23" height="1" fill="#96aadc"/>
<rect x="237" y="25" width="3" height="1" fill="#96aadc"/>
<rect x="256" y="25" width="3" height="1" fill="#96aadc"/>
<rect x="262" y="25" width="3" height="1" fill="#96aadc"/>
<rect x="272" y="25" width="3" height="1" fill="#96aadc"/>
<rect x="282" y="25" width="3" height="1" fill="#96aadc"/>
<rect x="286" y="25" width="3" height="1" fill="#96aadc"/>
<rect x="306" y="25" width="3" height="1" fill="#96aadc"/>
<rect x="311" y="25" width="23" height="1" fill="#96aadc"/>
<rect x="6" y="26" width="23" height="1" fill="#96aadc"/>
<rect x="31" y="26" width="3" height="1" fill="#96aadc"/>
<rect x="51" y="26" width="3" height="1" fill="#96aadc"/>
<rect x="55" y="26" width="22" height="1" fill="#96aadc"/>
<rect x="80" y="26" width="23" height="1" fill="#96aadc"/>
<rect x="104" y="26" width="23" height="1" fill="#96aadc"/>
<rect x="129" y="26" width="22" height="1" fill="#96aadc"/>
<rect x="153" y="26" width="22" height="1" fill="#96aadc"/>
<rect x="188" y="26" width="3" height="1" fill="#96aadc"/>
<rect x="208" y="26" width="3" height="1" fill="#96aadc"/>
<rect x="214" y="26" width="21" height="1" fill="#96aadc"/>
<rect x="237" y="26" width="3" height="1" fill="#96aadc"/>
<rect x="257" y="26" width="3" height="1" fill="#96aadc"/>
<rect x="262" y="26" width="3" height="1" fill="#96aadc"/>
<rect x="272" y="26" width="3" height="1" fill="#96aadc"/>
<rect x="282" y="26" width="3" height="1" fill="#96aadc"/>
<rect x="286" y="26" width="3" height="1" fill="#96aadc"/>
<rect x="306" y="26" width="3" height="1" fill="#96aadc"/>
<rect x="311" y="26" width="23" height="1" fill="#96aadc"/>
<rect x="6" y="33" width="23" height="1" fill="#96aadc"/>
<rect x="31" y="33" width="22" height="1" fill="#96aadc"/>
<rect x="55" y="33" width="22" height="1" fill="#96aadc"/>
<rect x="80" y="33" width="3" height="1" fill="#96aadc"/>
<rect x="104" y="33" width="23" height="1" fill="#96aadc"/>
<rect x="129" y="33" width="23" height="1" fill="#96aadc"/>
<rect x="153" y="33" width="23" height="1" fill="#96aadc"/>
<rect x="188" y="33" width="3" height="1" fill="#96aadc"/>
<rect x="208" y="33" width="3" height="1" fill="#96aadc"/>
<rect x="213" y="33" width="22" height="1" fill="#96aadc"/>
<rect x="237" y="33" width="22" height="1" fill="#96aadc"/>
<rect x="262" y="33" width="22" height="1" fill="#96aadc"/>
<rect x="6" y="34" width="23" height="1" fill="#96aadc"/>
<rect x="31" y="34" width="23" height="1" fill="#96aadc"/>
<rect x="55" y="34" width="23" height="1" fill="#96aadc"/>
<rect x="80" y="34" width="3" height="1" fill="#96aadc"/>
<rect x="104" y="34" width="23" height="1" fill="#96aadc"/>
<rect x="129" y="34" width="23" height="1" fill="#96aadc"/>
<rect x="153" y="34" width="23" height="1" fill="#96aadc"/>
<rect x="188" y="34" width="3" height="1" fill="#96aadc"/>
<rect x="208" y="34" width="3" height="1" fill="#96aadc"/>
<rect x="213" y="34" width="23" height="1" fill="#96aadc"/>
<rect x="237" y="34" width="23" height="1" fill="#96aadc"/>
<rect x="262" y="34" width="23" height="1" fill="#96aadc"/>
<rect x="6" y="35" width="3" height="1" fill="#96aadc"/>
<rect x="31" y="35" width="3" height="1" fill="#96aadc"/>
<rect x="51" y="35" width="3" height="1" fill="#96aadc"/>
<rect x="55" y="35" width="3" height="1" fill="#96aadc"/>
<rect x="75" y="35" width="3" height="1" fill="#96aadc"/>
<rect x="80" y="35" width="3" height="1" fill="#96aadc"/>
<rect x="104" y="35" width="3" height="1" fill="#96aadc"/>
<rect x="129" y="35" width="3" height="1" fill="#96aadc"/>
<rect x="153" y="35" width="3" height="1" fill="#96aadc"/>
<rect x="188" y="35" width="3" height="1" fill="#96aadc"/>
<rect x="208" y="35" width="3" height="1" fill="#96aadc"/>
<rect x="213" y="35" width="3" height="1" fill="#96aadc"/>
<rect x="233" y="35" width="3" height="1" fill="#96aadc"/>
<rect x="237" y="35" width="3" height="1" fill="#96aadc"/>
<rect x="257" y="35" width="3" height="1" fill="#96aadc"/>
<rect x="262" y="35" width="3" height="1" fill="#96aadc"/>
<rect x="282" y="35" width="3" height="1" fill="#96aadc"/>
<rect x="6" y="36" width="23" height="1" fill="#96aadc"/>
<rect x="31" y="36" width="3" height="1" fill="#96aadc"/>
<rect x="51" y="36" width="3" height="1" fill="#96aadc"/>
<rect x="55" y="36" width="3" height="1" fill="#96aadc"/>
<rect x="75" y="36" width="3" height="1" fill="#96aadc"/>
<rect x="80" y="36" width="3" height="1" fill="#96aadc"/>
<rect x="104" y="36" width="23" height="1" fill="#96aadc"/>
<rect x="129" y="36" width="22" height="1" fill="#96aadc"/>
<rect x="153" y="36" width="22" height="1" fill="#96aadc"/>
<rect x="188" y="36" width="23" height="1" fill="#96aadc"/>
<rect x="213" y="36" width="23" height="1" fill="#96aadc"/>
<rect x="237" y="36" width="23" height="1" fill="#96aadc"/>
<rect x="262" y="36" width="3" height="1" fill="#96aadc"/>
<rect x="282" y="36" width="3" height="1" fill="#96aadc"/>
<rect x="6" y="37" width="23" height="1" fill="#96aadc"/>
<rect x="31" y="37" width="3" height="1" fill="#96aadc"/>
<rect x="51" y="37" width="3" height="1" fill="#96aadc"/>
<rect x="55" y="37" width="3" height="1" fill="#96aadc"/>
<rect x="75" y="37" width="3" height="1" fill="#96aadc"/>
<rect x="80" y="37" width="3" height="1" fill="#96aadc"/>
<rect x="104" y="37" width="23" height="1" fill="#96aadc"/>
<rect x="129" y="37" width="23" height="1" fill="#96aadc"/>
<rect x="153" y="37" width="23" height="1" fill="#96aadc"/>
<rect x="188" y="37" width="23" height="1" fill="#96aadc"/>
<rect x="213" y="37" width="23" height="1" fill="#96aadc"/>
<rect x="237" y="37" width="22" height="1" fill="#96aadc"/>
<rect x="262" y="37" width="3" height="1" fill="#96aadc"/>
<rect x="282" y="37" width="3" height="1" fill="#96aadc"/>
<rect x="6" y="38" width="3" height="1" fill="#96aadc"/>
<rect x="31" y="38" width="3" height="1" fill="#96aadc"/>
<rect x="51" y="38" width="3" height="1" fill="#96aadc"/>
<rect x="55" y="38" width="3" height="1" fill="#96aadc"/>
<rect x="75" y="38" width="3" height="1" fill="#96aadc"/>
<rect x="80" y="38" width="3" height="1" fill="#96aadc"/>
<rect x="104" y="38" width="3" height="1" fill="#96aadc"/>
<rect x="149" y="38" width="3" height="1" fill="#96aadc"/>
<rect x="173" y="38" width="3" height="1" fill="#96aadc"/>
<rect x="188" y="38" width="3" height="1" fill="#96aadc"/>
<rect x="208" y="38" width="3" height="1" fill="#96aadc"/>
<rect x="213" y="38" width="3" height="1" fill="#96aadc"/>
<rect x="233" y="38" width="3" height="1" fill="#96aadc"/>
<rect x="237" y="38" width="3" height="1" fill="#96aadc"/>
<rect x="255" y="38" width="3" height="1" fill="#96aadc"/>
<rect x="262" y="38" width="3" height="1" fill="#96aadc"/>
<rect x="282" y="38" width="3" height="1" fill="#96aadc"/>
<rect x="6" y="39" width="23" height="1" fill="#96aadc"/>
<rect x="31" y="39" width="3" height="1" fill="#96aadc"/>
<rect x="51" y="39" width="3" height="1" fill="#96aadc"/>
<rect x="55" y="39" width="23" height="1" fill="#96aadc"/>
<rect x="80" y="39" width="23" height="1" fill="#96aadc"/>
<rect x="104" y="39" width="23" height="1" fill="#96aadc"/>
<rect x="129" y="39" width="23" height="1" fill="#96aadc"/>
<rect x="153" y="39" width="23" height="1" fill="#96aadc"/>
<rect x="188" y="39" width="3" height="1" fill="#96aadc"/>
<rect x="208" y="39" width="3" height="1" fill="#96aadc"/>
<rect x="213" y="39" width="3" height="1" fill="#96aadc"/>
<rect x="233" y="39" width="3" height="1" fill="#96aadc"/>
<rect x="237" y="39" width="3" height="1" fill="#96aadc"/>
<rect x="256" y="39" width="3" height="1" fill="#96aadc"/>
<rect x="262" y="39" width="23" height="1" fill="#96aadc"/>
<rect x="6" y="40" width="23" height="1" fill="#96aadc"/>
<rect x="31" y="40" width="3" height="1" fill="#96aadc"/>
<rect x="51" y="40" width="3" height="1" fill="#96aadc"/>
<rect x="55" y="40" width="22" height="1" fill="#96aadc"/>
<rect x="80" y="40" width="23" height="1" fill="#96aadc"/>
<rect x="104" y="40" width="23" height="1" fill="#96aadc"/>
<rect x="129" y="40" width="22" height="1" fill="#96aadc"/>
<rect x="153" y="40" width="22" height="1" fill="#96aadc"/>
<rect x="188" y="40" width="3" height="1" fill="#96aadc"/>
<rect x="208" y="40" width="3" height="1" fill="#96aadc"/>
<rect x="213" y="40" width="3" height="1" fill="#96aadc"/>
<rect x="233" y="40" width="3" height="1" fill="#96aadc"/>
<rect x="237" y="40" width="3" height="1" fill="#96aadc"/>
<rect x="257" y="40" width="3" height="1" fill="#96aadc"/>
<rect x="262" y="40" width="22" height="1" fill="#96aadc"/>
<rect x="6" y="47" width="23" height="1" fill="#96aadc"/>
<rect x="31" y="47" width="22" height="1" fill="#96aadc"/>
<rect x="55" y="47" width="22" height="1" fill="#96aadc"/>
<rect x="80" y="47" width="3" height="1" fill="#96aadc"/>
<rect x="104" y="47" width="23" height="1" fill="#96aadc"/>
<rect x="129" y="47" width="23" height="1" fill="#96aadc"/>
<rect x="153" y="47" width="23" height="1" fill="#96aadc"/>
<rect x="188" y="47" width="3" height="1" fill="#96aadc"/>
<rect x="193" y="47" width="22" height="1" fill="#96aadc"/>
<rect x="217" y="47" width="23" height="1" fill="#96aadc"/>
<rect x="242" y="47" width="22" height="1" fill="#96aadc"/>
<rect x="266" y="47" width="22" height="1" fill="#96aadc"/>
<rect x="291" y="47" width="23" height="1" fill="#96aadc"/>
<rect x="6" y="48" width="23" height="1" fill="#96aadc"/>
<rect x="31" y="48" width="23" height="1" fill="#96aadc"/>
<rect x="55" y="48" width="23" height="1" fill="#96aadc"/>
<rect x="80" y="48" width="3" height="1" fill="#96aadc"/>
<rect x="104" y="48" width="23" height="1" fill="#96aadc"/>
<rect x="129" y="48" width="23" height="1" fill="#96aadc"/>
<rect x="153" y="48" width="23" height="1" fill="#96aadc"/>
<rect x="188" y="48" width="3" height="1" fill="#96aadc"/>
<rect x="193" y="48" width="23" height="1" fill="#96aadc"/>
<rect x="217" y="48" width="23" height="1" fill="#96aadc"/>
<rect x="242" y="48" width="23" height="1" fill="#96aadc"/>
<rect x="266" y="48" width="23" height="1" fill="#96aadc"/>
<rect x="291" y="48" width="23" height="1" fill="#96aadc"/>
<rect x="6" y="49" width="3" height="1" fill="#96aadc"/>
<rect x="31" y="49" width="3" height="1" fill="#96aadc"/>
<rect x="51" y="49" width="3" height="1" fill="#96aadc"/>
<rect x="55" y="49" width="3" height="1" fill="#96aadc"/>
<rect x="75" y="49" width="3" height="1" fill="#96aadc"/>
<rect x="80" y="49" width="3" height="1" fill="#96aadc"/>
<rect x="104" y="49" width="3" height="1" fill="#96aadc"/>
<rect x="129" y="49" width="3" height="1" fill="#96aadc"/>
<rect x="153" y="49" width="3" height="1" fill="#96aadc"/>
<rect x="188" y="49" width="3" height="1" fill="#96aadc"/>
<rect x="193" y="49" width="3" height="1" fill="#96aadc"/>
<rect x="213" y="49" width="3" height="1" fill="#96aadc"/>
<rect x="217" y="49" width="3" height="1" fill="#96aadc"/>
<rect x="242" y="49" width="3" height="1" fill="#96aadc"/>
<rect x="262" y="49" width="3" height="1" fill="#96aadc"/>
<rect x="266" y="49" width="3" height="1" fill="#96aadc"/>
<rect x="286" y="49" width="3" height="1" fill="#96aadc"/>
<rect x="291" y="49" width="3" height="1" fill="#96aadc"/>
<rect x="6" y="50" width="23" height="1" fill="#96aadc"/>
<rect x="31" y="50" width="3" height="1" fill="#96aadc"/>
<rect x="51" y="50" width="3" height="1" fill="#96aadc"/>
<rect x="55" y="50" width="3" height="1" fill="#96aadc"/>
<rect x="75" y="50" width="3" height="1" fill="#96aadc"/>
<rect x="80" y="50" width="3" height="1" fill="#96aadc"/>
<rect x="104" y="50" width="23" height="1" fill="#96aadc"/>
<rect x="129" y="50" width="22" height="1" fill="#96aadc"/>
<rect x="153" y="50" width="22" height="1" fill="#96aadc"/>
<rect x="188" y="50" width="3" height="1" fill="#96aadc"/>
<rect x="193" y="50" width="3" height="1" fill="#96aadc"/>
<rect x="213" y="50" width="3" height="1" fill="#96aadc"/>
<rect x="217" y="50" width="22" height="1" fill="#96aadc"/>
<rect x="242" y="50" width="23" height="1" fill="#96aadc"/>
<rect x="266" y="50" width="3" height="1" fill="#96aadc"/>
<rect x="286" y="50" width="3" height="1" fill="#96aadc"/>
<rect x="291" y="50" width="23" height="1" fill="#96aadc"/>
<rect x="6" y="51" width="23" height="1" fill="#96aadc"/>
<rect x="31" y="51" width="3" height="1" fill="#96aadc"/>
<rect x="51" y="51" width="3" height="1" fill="#96aadc"/>
<rect x="55" y="51" width="3" height="1" fill="#96aadc"/>
<rect x="75" y="51" width="3" height="1" fill="#96aadc"/>
<rect x="80" y="51" width="3" height="1" fill="#96aadc"/>
<rect x="104" y="51" width="23" height="1" fill="#96aadc"/>
<rect x="129" y="51" width="23" height="1" fill="#96aadc"/>
<rect x="153" y="51" width="23" height="1" fill="#96aadc"/>
<rect x="188" y="51" width="3" height="1" fill="#96aadc"/>
<rect x="193" y="51" width="3" height="1" fill="#96aadc"/>
<rect x="213" y="51" width="3" height="1" fill="#96aadc"/>
<rect x="217" y="51" width="23" height="1" fill="#96aadc"/>
<rect x="242" y="51" width="23" height="1" fill="#96aadc"/>
<rect x="266" y="51" width="3" height="1" fill="#96aadc"/>
<rect x="286" y="51" width="3" height="1" fill="#96aadc"/>
<rect x="291" y="51" width="23" height="1" fill="#96aadc"/>
<rect x="6" y="52" width="3" height="1" fill="#96aadc"/>
<rect x="31" y="52" width="3" height="1" fill="#96aadc"/>
<rect x="51" y="52" width="3" height="1" fill="#96aadc"/>
<rect x="55" y="52" width="3" height="1" fill="#96aadc"/>
<rect x="75" y="52" width="3" height="1" fill="#96aadc"/>
<rect x="80" y="52" width="3" height="1" fill="#96aadc"/>
<rect x="104" y="52" width="3" height="1" fill="#96aadc"/>
<rect x="149" y="52" width="3" height="1" fill="#96aadc"/>
<rect x="173" y="52" width="3" height="1" fill="#96aadc"/>
<rect x="188" y="52" width="3" height="1" fill="#96aadc"/>
<rect x="193" y="52" width="3" height="1" fill="#96aadc"/>
<rect x="213" y="52" width="3" height="1" fill="#96aadc"/>
<rect x="237" y="52" width="3" height="1" fill="#96aadc"/>
<rect x="242" y="52" width="3" height="1" fill="#96aadc"/>
<rect x="262" y="52" width="3" height="1" fill="#96aadc"/>
<rect x="266" y="52" width="3" height="1" fill="#96aadc"/>
<rect x="286" y="52" width="3" height="1" fill="#96aadc"/>
<rect x="291" y="52" width="3" height="1" fill="#96aadc"/>
<rect x="6" y="53" width="23" height="1" fill="#96aadc"/>
<rect x="31" y="53" width="3" height="1" fill="#96aadc"/>
<rect x="51" y="53" width="3" height="1" fill="#96aadc"/>
<rect x="55" y="53" width="23" height="1" fill="#96aadc"/>
<rect x="80" y="53" width="23" height="1" fill="#96aadc"/>
<rect x="104" y="53" width="23" height="1" fill="#96aadc"/>
<rect x="129" y="53" width="23" height="1" fill="#96aadc"/>
<rect x="153" y="53" width="23" height="1" fill="#96aadc"/>
<rect x="188" y="53" width="3" height="1" fill="#96aadc"/>
<rect x="193" y="53" width="3" height="1" fill="#96aadc"/>
<rect x="213" y="53" width="3" height="1" fill="#96aadc"/>
<rect x="217" y="53" width="23" height="1" fill="#96aadc"/>
<rect x="242" y="53" width="3" height="1" fill="#96aadc"/>
<rect x="262" y="53" width="3" height="1" fill="#96aadc"/>
<rect x="266" y="53" width="3" height="1" fill="#96aadc"/>
<rect x="286" y="53" width="3" height="1" fill="#96aadc"/>
<rect x="291" y="53" width="23" height="1" fill="#96aadc"/>
<rect x="6" y="54" width="23" height="1" fill="#96aadc"/>
<rect x="31" y="54" width="3" height="1" fill="#96aadc"/>
<rect x="51" y="54" width="3" height="1" fill="#96aadc"/>
<rect x="55" y="54" width="22" height="1" fill="#96aadc"/>
<rect x="80" y="54" width="23" height="1" fill="#96aadc"/>
<rect x="104" y="54" width="23" height="1" fill="#96aadc"/>
<rect x="129" y="54" width="22" height="1" fill="#96aadc"/>
<rect x="153" y="54" width="22" height="1" fill="#96aadc"/>
<rect x="188" y="54" width="3" height="1" fill="#96aadc"/>
<rect x="193" y="54" width="3" height="1" fill="#96aadc"/>
<rect x="213" y="54" width="3" height="1" fill="#96aadc"/>
<rect x="217" y="54" width="22" height="1" fill="#96aadc"/>
<rect x="242" y="54" width="3" height="1" fill="#96aadc"/>
<rect x="262" y="54" width="3" height="1" fill="#96aadc"/>
<rect x="266" y="54" width="3" height="1" fill="#96aadc"/>
<rect x="286" y="54" width="3" height="1" fill="#96aadc"/>
<rect x="291" y="54" width="23" height="1" fill="#96aadc"/>
<rect x="64" y="61" width="23" height="1" fill="#ff0000"/>
<rect x="89" y="61" width="22" height="1" fill="#ff0000"/>
<rect x="113" y="61" width="22" height="1" fill="#ff0000"/>
<rect x="138" y="61" width="23" height="1" fill="#ff0000"/>
<rect x="162" y="61" width="22" height="1" fill="#ff0000"/>
<rect x="187" y="61" width="4" height="1" fill="#ff0000"/>
<rect x="206" y="61" width="4" height="1" fill="#ff0000"/>
<rect x="211" y="61" width="23" height="1" fill="#ff0000"/>
<rect x="236" y="61" width="22" height="1" fill="#ff0000"/>
<rect x="64" y="62" width="23" height="1" fill="#ff0000"/>
<rect x="89" y="62" width="23" height="1" fill="#ff0000"/>
<rect x="113" y="62" width="23" height="1" fill="#ff0000"/>
<rect x="138" y="62" width="23" height="1" fill="#ff0000"/>
<rect x="162" y="62" width="23" height="1" fill="#ff0000"/>
<rect x="188" y="62" width="4" height="1" fill="#ff0000"/>
<rect x="205" y="62" width="4" height="1" fill="#ff0000"/>
<rect x="211" y="62" width="23" height="1" fill="#ff0000"/>
<rect x="236" y="62" width="23" height="1" fill="#ff0000"/>
<rect x="64" y="63" width="3" height="1" fill="#ff0000"/>
<rect x="89" y="63" width="3" height="1" fill="#ff0000"/>
<rect x="109" y="63" width="3" height="1" fill="#ff0000"/>
<rect x="113" y="63" width="3" height="1" fill="#ff0000"/>
<rect x="123" y="63" width="3" height="1" fill="#ff0000"/>
<rect x="133" y="63" width="3" height="1" fill="#ff0000"/>
<rect x="138" y="63" width="3" height="1" fill="#ff0000"/>
<rect x="162" y="63" width="3" height="1" fill="#ff0000"/>
<rect x="182" y="63" width="3" height="1" fill="#ff0000"/>
<rect x="190" y="63" width="3" height="1" fill="#ff0000"/>
<rect x="203" y="63" width="4" height="1" fill="#ff0000"/>
<rect x="211" y="63" width="3" height="1" fill="#ff0000"/>
<rect x="236" y="63" width="3" height="1" fill="#ff0000"/>
<rect x="256" y="63" width="3" height="1" fill="#ff0000"/>
<rect x="64" y="64" width="3" height="1" fill="#ff0000"/>
<rect x="89" y="64" width="23" height="1" fill="#ff0000"/>
<rect x="113" y="64" width="3" height="1" fill="#ff0000"/>
<rect x="123" y="64" width="3" height="1" fill="#ff0000"/>
<rect x="133" y="64" width="3" height="1" fill="#ff0000"/>
<rect x="138" y="64" width="23" height="1" fill="#ff0000"/>
<rect x="162" y="64" width="3" height="1" fill="#ff0000"/>
<rect x="182" y="64" width="3" height="1" fill="#ff0000"/>
<rect x="192" y="64" width="3" height="1" fill="#ff0000"/>
<rect x="202" y="64" width="3" height="1" fill="#ff0000"/>
<rect x="211" y="64" width="23" height="1" fill="#ff0000"/>
<rect x="236" y="64" width="23" height="1" fill="#ff0000"/>
<rect x="64" y="65" width="3" height="1" fill="#ff0000"/>
<rect x="84" y="65" width="3" height="1" fill="#ff0000"/>
<rect x="89" y="65" width="23" height="1" fill="#ff0000"/>
<rect x="113" y="65" width="3" height="1" fill="#ff0000"/>
<rect x="123" y="65" width="3" height="1" fill="#ff0000"/>
<rect x="133" y="65" width="3" height="1" fill="#ff0000"/>
<rect x="138" y="65" width="23" height="1" fill="#ff0000"/>
<rect x="162" y="65" width="3" height="1" fill="#ff0000"/>
<rect x="182" y="65" width="3" height="1" fill="#ff0000"/>
<rect x="193" y="65" width="3" height="1" fill="#ff0000"/>
<rect x="201" y="65" width="3" height="1" fill="#ff0000"/>
<rect x="211" y="65" width="23" height="1" fill="#ff0000"/>
<rect x="236" y="65" width="22" height="1" fill="#ff0000"/>
<rect x="64" y="66" width="3" height="1" fill="#ff0000"/>
<rect x="84" y="66" width="3" height="1" fill="#ff0000"/>
<rect x="89" y="66" width="3" height="1" fill="#ff0000"/>
<rect x="109" y="66" width="3" height="1" fill="#ff0000"/>
<rect x="113" y="66" width="3" height="1" fill="#ff0000"/>
<rect x="123" y="66" width="3" height="1" fill="#ff0000"/>
<rect x="133" y="66" width="3" height="1" fill="#ff0000"/>
<rect x="138" y="66" width="3" height="1" fill="#ff0000"/>
<rect x="162" y="66" width="3" height="1" fill="#ff0000"/>
<rect x="182" y="66" width="3" height="1" fill="#ff0000"/>
<rect x="194" y="66" width="4" height="1" fill="#ff0000"/>
<rect x="199" y="66" width="4" height="1" fill="#ff0000"/>
<rect x="211" y="66" width="3" height="1" fill="#ff0000"/>
<rect x="236" y="66" width="3" height="1" fill="#ff0000"/>
<rect x="255" y="66" width="2" height="1" fill="#ff0000"/>
<rect x="64" y="67" width="23" height="1" fill="#ff0000"/>
<rect x="89" y="67" width="3" height="1" fill="#ff0000"/>
<rect x="109" y="67" width="3" height="1" fill="#ff0000"/>
<rect x="113" y="67" width="3" height="1" fill="#ff0000"/>
<rect x="123" y="67" width="3" height="1" fill="#ff0000"/>
<rect x="133" y="67" width="3" height="1" fill="#ff0000"/>
<rect x="138" y="67" width="23" height="1" fill="#ff0000"/>
<rect x="162" y="67" width="23" height="1" fill="#ff0000"/>
<rect x="196" y="67" width="5" height="1" fill="#ff0000"/>
<rect x="211" y="67" width="23" height="1" fill="#ff0000"/>
<rect x="236" y="67" width="3" height="1" fill="#ff0000"/>
<rect x="255" y="67" width="3" height="1" fill="#ff0000"/>
<rect x="64" y="68" width="23" height="1" fill="#ff0000"/>
<rect x="89" y="68" width="3" height="1" fill="#ff0000"/>
<rect x="109" y="68" width="3" height="1" fill="#ff0000"/>
<rect x="113" y="68" width="3" height="1" fill="#ff0000"/>
<rect x="123" y="68" width="3" height="1" fill="#ff0000"/>
<rect x="133" y="68" width="3" height="1" fill="#ff0000"/>
<rect x="138" y="68" width="23" height="1" fill="#ff0000"/>
<rect x="162" y="68" width="22" height="1" fill="#ff0000"/>
<rect x="197" y="68" width="3" height="1" fill="#ff0000"/>
<rect x="211" y="68" width="23" height="1" fill="#ff0000"/>
<rect x="236" y="68" width="3" height="1" fill="#ff0000"/>
<rect x="256" y="68" width="3" height="1" fill="#ff0000"/>
<rect x="64" y="75" width="22" height="1" fill="#ff0000"/>
<rect x="89" y="75" width="3" height="1" fill="#ff0000"/>
<rect x="113" y="75" width="3" height="1" fill="#ff0000"/>
<rect x="138" y="75" width="23" height="1" fill="#ff0000"/>
<rect x="162" y="75" width="3" height="1" fill="#ff0000"/>
<rect x="187" y="75" width="23" height="1" fill="#ff0000"/>
<rect x="211" y="75" width="22" height="1" fill="#ff0000"/>
<rect x="236" y="75" width="22" height="1" fill="#ff0000"/>
<rect x="64" y="76" width="23" height="1" fill="#ff0000"/>
<rect x="89" y="76" width="3" height="1" fill="#ff0000"/>
<rect x="113" y="76" width="3" height="1" fill="#ff0000"/>
<rect x="138" y="76" width="23" height="1" fill="#ff0000"/>
<rect x="162" y="76" width="3" height="1" fill="#ff0000"/>
<rect x="187" y="76" width="23" height="1" fill="#ff0000"/>
<rect x="211" y="76" width="23" height="1" fill="#ff0000"/>
<rect x="236" y="76" width="23" height="1" fill="#ff0000"/>
<rect x="64" y="77" width="3" height="1" fill="#ff0000"/>
<rect x="84" y="77" width="3" height="1" fill="#ff0000"/>
<rect x="89" y="77" width="3" height="1" fill="#ff0000"/>
<rect x="113" y="77" width="3" height="1" fill="#ff0000"/>
<rect x="138" y="77" width="3" height="1" fill="#ff0000"/>
<rect x="162" y="77" width="3" height="1" fill="#ff0000"/>
<rect x="187" y="77" width="3" height="1" fill="#ff0000"/>
<rect x="211" y="77" width="3" height="1" fill="#ff0000"/>
<rect x="231" y="77" width="3" height="1" fill="#ff0000"/>
<rect x="236" y="77" width="3" height="1" fill="#ff0000"/>
<rect x="256" y="77" width="3" height="1" fill="#ff0000"/>
<rect x="64" y="78" width="23" height="1" fill="#ff0000"/>
<rect x="89" y="78" width="3" height="1" fill="#ff0000"/>
<rect x="113" y="78" width="3" height="1" fill="#ff0000"/>
<rect x="138" y="78" width="3" height="1" fill="#ff0000"/>
<rect x="162" y="78" width="3" height="1" fill="#ff0000"/>
<rect x="187" y="78" width="23" height="1" fill="#ff0000"/>
<rect x="211" y="78" width="23" height="1" fill="#ff0000"/>
<rect x="236" y="78" width="23" height="1" fill="#ff0000"/>
<rect x="64" y="79" width="23" height="1" fill="#ff0000"/>
<rect x="89" y="79" width="3" height="1" fill="#ff0000"/>
<rect x="113" y="79" width="3" height="1" fill="#ff0000"/>
<rect x="138" y="79" width="3" height="1" fill="#ff0000"/>
<rect x="162" y="79" width="3" height="1" fill="#ff0000"/>
<rect x="187" y="79" width="23" height="1" fill="#ff0000"/>
<rect x="211" y="79" width="23" height="1" fill="#ff0000"/>
<rect x="236" y="79" width="22" height="1" fill="#ff0000"/>
<rect x="64" y="80" width="3" height="1" fill="#ff0000"/>
<rect x="84" y="80" width="3" height="1" fill="#ff0000"/>
<rect x="89" y="80" width="3" height="1" fill="#ff0000"/>
<rect x="113" y="80" width="3" height="1" fill="#ff0000"/>
<rect x="138" y="80" width="3" height="1" fill="#ff0000"/>
<rect x="162" y="80" width="3" height="1" fill="#ff0000"/>
<rect x="187" y="80" width="3" height="1" fill="#ff0000"/>
<rect x="211" y="80" width="3" height="1" fill="#ff0000"/>
<rect x="231" y="80" width="3" height="1" fill="#ff0000"/>
<rect x="236" y="80" width="3" height="1" fill="#ff0000"/>
<rect x="255" y="80" width="2" height="1" fill="#ff0000"/>
<rect x="64" y="81" width="3" height="1" fill="#ff0000"/>
<rect x="84" y="81" width="3" height="1" fill="#ff0000"/>
<rect x="89" y="81" width="23" height="1" fill="#ff0000"/>
<rect x="113" y="81" width="23" height="1" fill="#ff0000"/>
<rect x="138" y="81" width="23" height="1" fill="#ff0000"/>
<rect x="162" y="81" width="23" height="1" fill="#ff0000"/>
<rect x="187" y="81" width="23" height="1" fill="#ff0000"/>
<rect x="211" y="81" width="3" height="1" fill="#ff0000"/>
<rect x="231" y="81" width="3" height="1" fill="#ff0000"/>
<rect x="236" y="81" width="3" height="1" fill="#ff0000"/>
<rect x="255" y="81" width="3" height="1" fill="#ff0000"/>
<rect x="64" y="82" width="3" height="1" fill="#ff0000"/>
<rect x="84" y="82" width="3" height="1" fill="#ff0000"/>
<rect x="89" y="82" width="23" height="1" fill="#ff0000"/>
<rect x="113" y="82" width="23" height="1" fill="#ff0000"/>
<rect x="138" y="82" width="23" height="1" fill="#ff0000"/>
<rect x="162" y="82" width="23" height="1" fill="#ff0000"/>
<rect x="187" y="82" width="23" height="1" fill="#ff0000"/>
<rect x="211" y="82" width="3" height="1" fill="#ff0000"/>
<rect x="231" y="82" width="3" height="1" fill="#ff0000"/>
<rect x="236" y="82" width="3" height="1" fill="#ff0000"/>
<rect x="256" y="82" width="3" height="1" fill="#ff0000"/>
<rect x="0" y="89" width="3" height="1" fill="#f8fefe"/>
<rect x="6" y="89" width="23" height="1" fill="#96fafa"/>
<rect x="31" y="89" width="22" height="1" fill="#96fafa"/>
<rect x="55" y="89" width="22" height="1" fill="#96fafa"/>
<rect x="80" y="89" width="3" height="1" fill="#96fafa"/>
<rect x="104" y="89" width="23" height="1" fill="#96fafa"/>
<rect x="129" y="89" width="23" height="1" fill="#96fafa"/>
<rect x="153" y="89" width="23" height="1" fill="#96fafa"/>
<rect x="188" y="89" width="4" height="1" fill="#96fafa"/>
<rect x="207" y="89" width="4" height="1" fill="#96fafa"/>
<rect x="213" y="89" width="22" height="1" fill="#96fafa"/>
<rect x="238" y="89" width="3" height="1" fill="#96fafa"/>
<rect x="243" y="89" width="23" height="1" fill="#96fafa"/>
<rect x="338" y="89" width="2" height="1" fill="#f8fefe"/>
<rect x="0" y="90" width="3" height="1" fill="#f8fefe"/>
<rect x="6" y="90" width="23" height="1" fill="#96fafa"/>
<rect x="31" y="90" width="23" height="1" fill="#96fafa"/>
<rect x="55" y="90" width="23" height="1" fill="#96fafa"/>
<rect x="80" y="90" width="3" height="1" fill="#96fafa"/>
<rect x="104" y="90" width="23" height="1" fill="#96fafa"/>
<rect x="129" y="90" width="23" height="1" fill="#96fafa"/>
<rect x="153" y="90" width="23" height="1" fill="#96fafa"/>
<rect x="189" y="90" width="4" height="1" fill="#96fafa"/>
<rect x="206" y="90" width="4" height="1" fill="#96fafa"/>
<rect x="212" y="90" width="24" height="1" fill="#96fafa"/>
<rect x="238" y="90" width="3" height="1" fill="#96fafa"/>
<rect x="243" y="90" width="24" height="1" fill="#96fafa"/>
<rect x="338" y="90" width="2" height="1" fill="#f8fefe"/>
<rect x="0" y="91" width="3" height="1" fill="#f8fefe"/>
<rect x="6" y="91" width="3" height="1" fill="#96fafa"/>
<rect x="31" y="91" width="3" height="1" fill="#96fafa"/>
<rect x="51" y="91" width="3" height="1" fill="#96fafa"/>
<rect x="55" y="91" width="3" height="1" fill="#96fafa"/>
<rect x="75" y="91" width="3" height="1" fill="#96fafa"/>
<rect x="80" y="91" width="3" height="1" fill="#96fafa"/>
<rect x="104" y="91" width="3" height="1" fill="#96fafa"/>
<rect x="129" y="91" width="3" height="1" fill="#96fafa"/>
<rect x="153" y="91" width="3" height="1" fill="#96fafa"/>
<rect x="191" y="91" width="3" height="1" fill="#96fafa"/>
<rect x="204" y="91" width="4" height="1" fill="#96fafa"/>
<rect x="212" y="91" width="3" height="1" fill="#96fafa"/>
<rect x="233" y="91" width="3" height="1" fill="#96fafa"/>
<rect x="238" y="91" width="3" height="1" fill="#96fafa"/>
<rect x="243" y="91" width="3" height="1" fill="#96fafa"/>
<rect x="264" y="91" width="3" height="1" fill="#96fafa"/>
<rect x="338" y="91" width="2" height="1" fill="#f8fefe"/>
<rect x="0" y="92" width="3" height="1" fill="#f8fefe"/>
<rect x="6" y="92" width="23" height="1" fill="#96fafa"/>
<rect x="31" y="92" width="3" height="1" fill="#96fafa"/>
<rect x="51" y="92" width="3" height="1" fill="#96fafa"/>
<rect x="55" y="92" width="3" height="1" fill="#96fafa"/>
<rect x="75" y="92" width="3" height="1" fill="#96fafa"/>
<rect x="80" y="92" width="3" height="1" fill="#96fafa"/>
<rect x="104" y="92" width="23" height="1" fill="#96fafa"/>
<rect x="129" y="92" width="22" height="1" fill="#96fafa"/>
<rect x="153" y="92" width="22" height="1" fill="#96fafa"/>
<rect x="193" y="92" width="3" height="1" fill="#96fafa"/>
<rect x="203" y="92" width="3" height="1" fill="#96fafa"/>
<rect x="212" y="92" width="3" height="1" fill="#96fafa"/>
<rect x="233" y="92" width="3" height="1" fill="#96fafa"/>
<rect x="238" y="92" width="3" height="1" fill="#96fafa"/>
<rect x="243" y="92" width="3" height="1" fill="#96fafa"/>
<rect x="264" y="92" width="3" height="1" fill="#96fafa"/>
<rect x="338" y="92" width="2" height="1" fill="#f8fefe"/>
<rect x="0" y="93" width="3" height="1" fill="#f8fefe"/>
<rect x="6" y="93" width="23" height="1" fill="#96fafa"/>
<rect x="31" y="93" width="3" height="1" fill="#96fafa"/>
<rect x="51" y="93" width="3" height="1" fill="#96fafa"/>
<rect x="55" y="93" width="3" height="1" fill="#96fafa"/>
<rect x="75" y="93" width="3" height="1" fill="#96fafa"/>
<rect x="80" y="93" width="3" height="1" fill="#96fafa"/>
<rect x="104" y="93" width="23" height="1" fill="#96fafa"/>
<rect x="129" y="93" width="23" height="1" fill="#96fafa"/>
<rect x="153" y="93" width="23" height="1" fill="#96fafa"/>
<rect x="194" y="93" width="3" height="1" fill="#96fafa"/>
<rect x="202" y="93" width="3" height="1" fill="#96fafa"/>
<rect x="212" y="93" width="3" height="1" fill="#96fafa"/>
<rect x="233" y="93" width="3" height="1" fill="#96fafa"/>
<rect x="238" y="93" width="3" height="1" fill="#96fafa"/>
<rect x="243" y="93" width="3" height="1" fill="#96fafa"/>
<rect x="264" y="93" width="3" height="1" fill="#96fafa"/>
<rect x="338" y="93" width="2" height="1" fill="#f8fefe"/>
<rect x="0" y="94" width="3" height="1" fill="#f8fefe"/>
<rect x="6" y="94" width="3" height="1" fill="#96fafa"/>
<rect x="31" y="94" width="3" height="1" fill="#96fafa"/>
<rect x="51" y="94" width="3" height="1" fill="#96fafa"/>
<rect x="55" y="94" width="3" height="1" fill="#96fafa"/>
<rect x="75" y="94" width="3" height="1" fill="#96fafa"/>
<rect x="80" y="94" width="3" height="1" fill="#96fafa"/>
<rect x="104" y="94" width="3" height="1" fill="#96fafa"/>
<rect x="149" y="94" width="3" height="1" fill="#96fafa"/>
<rect x="173" y="94" width="3" height="1" fill="#96fafa"/>
<rect x="195" y="94" width="4" height="1" fill="#96fafa"/>
<rect x="200" y="94" width="4" height="1" fill="#96fafa"/>
<rect x="212" y="94" width="3" height="1" fill="#96fafa"/>
<rect x="233" y="94" width="3" height="1" fill="#96fafa"/>
<rect x="238" y="94" width="3" height="1" fill="#96fafa"/>
<rect x="243" y="94" width="3" height="1" fill="#96fafa"/>
<rect x="264" y="94" width="3" height="1" fill="#96fafa"/>
<rect x="338" y="94" width="2" height="1" fill="#f8fefe"/>
<rect x="0" y="95" width="3" height="1" fill="#f8fefe"/>
<rect x="6" y="95" width="23" height="1" fill="#96fafa"/>
<rect x="31" y="95" width="3" height="1" fill="#96fafa"/>
<rect x="51" y="95" width="3" height="1" fill="#96fafa"/>
<rect x="55" y="95" width="23" height="1" fill="#96fafa"/>
<rect x="80" y="95" width="23" height="1" fill="#96fafa"/>
<rect x="104" y="95" width="23" height="1" fill="#96fafa"/>
<rect x="129" y="95" width="23" height="1" fill="#96fafa"/>
<rect x="153" y="95" width="23" height="1" fill="#96fafa"/>
<rect x="197" y="95" width="5" height="1" fill="#96fafa"/>
<rect x="212" y="95" width="24" height="1" fill="#96fafa"/>
<rect x="238" y="95" width="3" height="1" fill="#96fafa"/>
<rect x="243" y="95" width="24" height="1" fill="#96fafa"/>
<rect x="338" y="95" width="2" height="1" fill="#f8fefe"/>
<rect x="0" y="96" width="3" height="1" fill="#f8fefe"/>
<rect x="6" y="96" width="23" height="1" fill="#96fafa"/>
<rect x="31" y="96" width="3" height="1" fill="#96fafa"/>
<rect x="51" y="96" width="3" height="1" fill="#96fafa"/>
<rect x="55" y="96" width="22" height="1" fill="#96fafa"/>
<rect x="80" y="96" width="23" height="1" fill="#96fafa"/>
<rect x="104" y="96" width="23" height="1" fill="#96fafa"/>
<rect x="129" y="96" width="22" height="1" fill="#96fafa"/>
<rect x="153" y="96" width="22" height="1" fill="#96fafa"/>
<rect x="198" y="96" width="3" height="1" fill="#96fafa"/>
<rect x="213" y="96" width="22" height="1" fill="#96fafa"/>
<rect x="238" y="96" width="3" height="1" fill="#96fafa"/>
<rect x="243" y="96" width="23" height="1" fill="#96fafa"/>
<rect x="338" y="96" width="2" height="1" fill="#f8fefe"/>
<rect x="0" y="97" width="3" height="1" fill="#f8fefe"/>
<rect x="338" y="97" width="2" height="1" fill="#f8fefe"/>
<rect x="0" y="98" width="3" height="1" fill="#f8fefe"/>
<rect x="338" y="98" width="2" height="1" fill="#f8fefe"/>
<rect x="0" y="99" width="3" height="1" fill="#f8fefe"/>
<rect x="338" y="99" width="2" height="1" fill="#f8fefe"/>
<rect x="0" y="100" width="340" height="1" fill="#f8fefe"/>
<rect x="0" y="101" width="340" height="1" fill="#f8fefe"/>
<rect x="0" y="102" width="340" height="1" fill="#f8fefe"/>
</svg>
