<?xml version="1.0" encoding="UTF-8"?>
<svg xmlns="http://www.w3.org/2000/svg" width="304" height="17" viewBox="0 0 304 17" shape-rendering="crispEdges">
<title>score.bmp</title>
<rect x="4" y="4" width="24" height="1" fill="#b89a4d"/>
<rect x="34" y="4" width="13" height="1" fill="#b89a4d"/>
<rect x="64" y="4" width="24" height="1" fill="#b89a4d"/>
<rect x="94" y="4" width="24" height="1" fill="#b89a4d"/>
<rect x="124" y="4" width="3" height="1" fill="#b89a4d"/>
<rect x="145" y="4" width="3" height="1" fill="#b89a4d"/>
<rect x="154" y="4" width="24" height="1" fill="#b89a4d"/>
<rect x="184" y="4" width="3" height="1" fill="#b89a4d"/>
<rect x="214" y="4" width="24" height="1" fill="#b89a4d"/>
<rect x="244" y="4" width="24" height="1" fill="#b89a4d"/>
<rect x="274" y="4" width="24" height="1" fill="#b89a4d"/>
<rect x="4" y="5" width="24" height="1" fill="#b89a4d"/>
<rect x="34" y="5" width="13" height="1" fill="#b89a4d"/>
<rect x="64" y="5" width="24" height="1" fill="#b89a4d"/>
<rect x="94" y="5" width="24" height="1" fill="#b89a4d"/>
<rect x="124" y="5" width="3" height="1" fill="#b89a4d"/>
<rect x="145" y="5" width="3" height="1" fill="#b89a4d"/>
<rect x="154" y="5" width="24" height="1" fill="#b89a4d"/>
<rect x="184" y="5" width="3" height="1" fill="#b89a4d"/>
<rect x="214" y="5" width="24" height="1" fill="#b89a4d"/>
<rect x="244" y="5" width="24" height="1" fill="#b89a4d"/>
<rect x="274" y="5" width="24" height="1" fill="#b89a4d"/>
<rect x="4" y="6" width="3" height="1" fill="#b89a4d"/>
<rect x="25" y="6" width="3" height="1" fill="#b89a4d"/>
<rect x="45" y="6" width="2" height="1" fill="#b89a4d"/>
<rect x="85" y="6" width="3" height="1" fill="#b89a4d"/>
<rect x="115" y="6" width="3" height="1" fill="#b89a4d"/>
<rect x="124" y="6" width="3" height="1" fill="#b89a4d"/>
<rect x="145" y="6" width="3" height="1" fill="#b89a4d"/>
<rect x="154" y="6" width="3" height="1" fill="#b89a4d"/>
<rect x="184" y="6" width="3" height="1" fill="#b89a4d"/>
<rect x="235" y="6" width="3" height="1" fill="#b89a4d"/>
<rect x="244" y="6" width="3" height="1" fill="#b89a4d"/>
<rect x="265" y="6" width="3" height="1" fill="#b89a4d"/>
<rect x="274" y="6" width="3" height="1" fill="#b89a4d"/>
<rect x="295" y="6" width="3" height="1" fill="#b89a4d"/>
<rect x="4" y="7" width="3" height="1" fill="#b89a4d"/>
<rect x="25" y="7" width="3" height="1" fill="#b89a4d"/>
<rect x="45" y="7" width="2" height="1" fill="#b89a4d"/>
<rect x="64" y="7" width="24" height="1" fill="#b89a4d"/>
<rect x="94" y="7" width="23" height="1" fill="#b89a4d"/>
<rect x="124" y="7" width="24" height="1" fill="#b89a4d"/>
<rect x="154" y="7" width="24" height="1" fill="#b89a4d"/>
<rect x="184" y="7" width="24" height="1" fill="#b89a4d"/>
<rect x="235" y="7" width="3" height="1" fill="#b89a4d"/>
<rect x="245" y="7" width="22" height="1" fill="#b89a4d"/>
<rect x="274" y="7" width="24" height="1" fill="#b89a4d"/>
<rect x="4" y="8" width="3" height="1" fill="#b89a4d"/>
<rect x="25" y="8" width="3" height="1" fill="#b89a4d"/>
<rect x="45" y="8" width="2" height="1" fill="#b89a4d"/>
<rect x="64" y="8" width="24" height="1" fill="#b89a4d"/>
<rect x="94" y="8" width="24" height="1" fill="#b89a4d"/>
<rect x="124" y="8" width="24" height="1" fill="#b89a4d"/>
<rect x="155" y="8" width="23" height="1" fill="#b89a4d"/>
<rect x="184" y="8" width="24" height="1" fill="#b89a4d"/>
<rect x="235" y="8" width="3" height="1" fill="#b89a4d"/>
<rect x="244" y="8" width="24" height="1" fill="#b89a4d"/>
<rect x="275" y="8" width="23" height="1" fill="#b89a4d"/>
<rect x="4" y="9" width="3" height="1" fill="#b89a4d"/>
<rect x="25" y="9" width="3" height="1" fill="#b89a4d"/>
<rect x="45" y="9" width="2" height="1" fill="#b89a4d"/>
<rect x="64" y="9" width="3" height="1" fill="#b89a4d"/>
<rect x="115" y="9" width="3" height="1" fill="#b89a4d"/>
<rect x="145" y="9" width="3" height="1" fill="#b89a4d"/>
<rect x="175" y="9" width="3" height="1" fill="#b89a4d"/>
<rect x="184" y="9" width="3" height="1" fill="#b89a4d"/>
<rect x="205" y="9" width="3" height="1" fill="#b89a4d"/>
<rect x="235" y="9" width="3" height="1" fill="#b89a4d"/>
<rect x="244" y="9" width="3" height="1" fill="#b89a4d"/>
<rect x="265" y="9" width="3" height="1" fill="#b89a4d"/>
<rect x="295" y="9" width="3" height="1" fill="#b89a4d"/>
<rect x="4" y="10" width="24" height="1" fill="#b89a4d"/>
<rect x="34" y="10" width="24" height="1" fill="#b89a4d"/>
<rect x="64" y="10" width="24" height="1" fill="#b89a4d"/>
<rect x="94" y="10" width="24" height="1" fill="#b89a4d"/>
<rect x="145" y="10" width="3" height="1" fill="#b89a4d"/>
<rect x="154" y="10" width="24" height="1" fill="#b89a4d"/>
<rect x="184" y="10" width="24" height="1" fill="#b89a4d"/>
<rect x="235" y="10" width="3" height="1" fill="#b89a4d"/>
<rect x="244" y="10" width="24" height="1" fill="#b89a4d"/>
<rect x="295" y="10" width="3" height="1" fill="#b89a4d"/>
<rect x="5" y="11" width="23" height="1" fill="#b89a4d"/>
<rect x="34" y="11" width="24" height="1" fill="#b89a4d"/>
<rect x="64" y="11" width="24" height="1" fill="#b89a4d"/>
<rect x="94" y="11" width="24" height="1" fill="#b89a4d"/>
<rect x="145" y="11" width="3" height="1" fill="#b89a4d"/>
<rect x="154" y="11" width="24" height="1" fill="#b89a4d"/>
<rect x="184" y="11" width="24" height="1" fill="#b89a4d"/>
<rect x="235" y="11" width="3" height="1" fill="#b89a4d"/>
<rect x="244" y="11" width="24" height="1" fill="#b89a4d"/>
<rect x="295" y="11" width="3" height="1" fill="#b89a4d"/>
</svg>
