<?xml version="1.0" encoding="UTF-8"?>
<svg xmlns="http://www.w3.org/2000/svg" width="640" height="64" viewBox="0 0 640 64" shape-rendering="crispEdges">
<title>title.bmp</title>
<rect x="50" y="22" width="46" height="1" fill="#ff0000"/>
<rect x="104" y="22" width="46" height="1" fill="#ff0000"/>
<rect x="231" y="22" width="46" height="1" fill="#ff0000"/>
<rect x="281" y="22" width="5" height="1" fill="#ff0000"/>
<rect x="302" y="22" width="6" height="1" fill="#ff0000"/>
<rect x="324" y="22" width="5" height="1" fill="#ff0000"/>
<rect x="335" y="22" width="46" height="1" fill="#ff0000"/>
<rect x="387" y="22" width="46" height="1" fill="#ff0000"/>
<rect x="437" y="22" width="46" height="1" fill="#ff0000"/>
<rect x="491" y="22" width="46" height="1" fill="#ff0000"/>
<rect x="541" y="22" width="46" height="1" fill="#ff0000"/>
<rect x="50" y="23" width="48" height="1" fill="#ff0000"/>
<rect x="103" y="23" width="47" height="1" fill="#ff0000"/>
<rect x="230" y="23" width="47" height="1" fill="#ff0000"/>
<rect x="281" y="23" width="5" height="1" fill="#ff0000"/>
<rect x="302" y="23" width="6" height="1" fill="#ff0000"/>
<rect x="324" y="23" width="5" height="1" fill="#ff0000"/>
<rect x="334" y="23" width="47" height="1" fill="#ff0000"/>
<rect x="386" y="23" width="47" height="1" fill="#ff0000"/>
<rect x="437" y="23" width="48" height="1" fill="#ff0000"/>
<rect x="490" y="23" width="47" height="1" fill="#ff0000"/>
<rect x="541" y="23" width="48" height="1" fill="#ff0000"/>
<rect x="50" y="24" width="48" height="1" fill="#fb0808"/>
<rect x="102" y="24" width="48" height="1" fill="#fb0808"/>
<rect x="229" y="24" width="48" height="1" fill="#fb0808"/>
<rect x="281" y="24" width="5" height="1" fill="#fb0808"/>
<rect x="302" y="24" width="6" height="1" fill="#fb0808"/>
<rect x="324" y="24" width="5" height="1" fill="#fb0808"/>
<rect x="333" y="24" width="48" height="1" fill="#fb0808"/>
<rect x="385" y="24" width="48" height="1" fill="#fb0808"/>
<rect x="437" y="24" width="48" height="1" fill="#fb0808"/>
<rect x="489" y="24" width="48" height="1" fill="#fb0808"/>
<rect x="541" y="24" width="48" height="1" fill="#fb0808"/>
<rect x="50" y="25" width="48" height="1" fill="#f51212"/>
<rect x="102" y="25" width="48" height="1" fill="#f51212"/>
<rect x="229" y="25" width="48" height="1" fill="#f51212"/>
<rect x="281" y="25" width="5" height="1" fill="#f51212"/>
<rect x="302" y="25" width="6" height="1" fill="#f51212"/>
<rect x="324" y="25" width="5" height="1" fill="#f51212"/>
<rect x="333" y="25" width="48" height="1" fill="#f51212"/>
<rect x="385" y="25" width="48" height="1" fill="#f51212"/>
<rect x="437" y="25" width="48" height="1" fill="#f51212"/>
<rect x="489" y="25" width="48" height="1" fill="#f51212"/>
<rect x="541" y="25" width="48" height="1" fill="#f51212"/>
<rect x="50" y="26" width="5" height="1" fill="#ee1f1e"/>
<rect x="92" y="26" width="6" height="1" fill="#ee1f1e"/>
<rect x="102" y="26" width="6" height="1" fill="#ee1f1e"/>
<rect x="229" y="26" width="6" height="1" fill="#ee1f1e"/>
<rect x="281" y="26" width="5" height="1" fill="#ee1f1e"/>
<rect x="302" y="26" width="6" height="1" fill="#ee1f1e"/>
<rect x="324" y="26" width="5" height="1" fill="#ee1f1e"/>
<rect x="333" y="26" width="6" height="1" fill="#ee1f1e"/>
<rect x="385" y="26" width="6" height="1" fill="#ee1f1e"/>
<rect x="437" y="26" width="5" height="1" fill="#ee1f1e"/>
<rect x="479" y="26" width="6" height="1" fill="#ee1f1e"/>
<rect x="489" y="26" width="6" height="1" fill="#ee1f1e"/>
<rect x="541" y="26" width="5" height="1" fill="#ee1f1e"/>
<rect x="583" y="26" width="6" height="1" fill="#ee1f1e"/>
<rect x="50" y="27" width="5" height="1" fill="#e62d2c"/>
<rect x="93" y="27" width="5" height="1" fill="#e62d2c"/>
<rect x="102" y="27" width="5" height="1" fill="#e62d2c"/>
<rect x="229" y="27" width="5" height="1" fill="#e62d2c"/>
<rect x="281" y="27" width="5" height="1" fill="#e62d2c"/>
<rect x="302" y="27" width="6" height="1" fill="#e62d2c"/>
<rect x="324" y="27" width="5" height="1" fill="#e62d2c"/>
<rect x="333" y="27" width="5" height="1" fill="#e62d2c"/>
<rect x="385" y="27" width="5" height="1" fill="#e62d2c"/>
<rect x="437" y="27" width="5" height="1" fill="#e62d2c"/>
<rect x="480" y="27" width="5" height="1" fill="#e62d2c"/>
<rect x="489" y="27" width="5" height="1" fill="#e62d2c"/>
<rect x="541" y="27" width="5" height="1" fill="#e62d2c"/>
<rect x="584" y="27" width="5" height="1" fill="#e62d2c"/>
<rect x="50" y="28" width="48" height="1" fill="#de3b3b"/>
<rect x="102" y="28" width="48" height="1" fill="#de3b3b"/>
<rect x="229" y="28" width="46" height="1" fill="#de3b3b"/>
<rect x="281" y="28" width="5" height="1" fill="#de3b3b"/>
<rect x="302" y="28" width="6" height="1" fill="#de3b3b"/>
<rect x="324" y="28" width="5" height="1" fill="#de3b3b"/>
<rect x="333" y="28" width="48" height="1" fill="#de3b3b"/>
<rect x="385" y="28" width="48" height="1" fill="#de3b3b"/>
<rect x="437" y="28" width="48" height="1" fill="#de3b3b"/>
<rect x="489" y="28" width="48" height="1" fill="#de3b3b"/>
<rect x="541" y="28" width="48" height="1" fill="#de3b3b"/>
<rect x="50" y="29" width="48" height="1" fill="#d54a49"/>
<rect x="102" y="29" width="48" height="1" fill="#d54a49"/>
<rect x="229" y="29" width="48" height="1" fill="#d54a49"/>
<rect x="281" y="29" width="5" height="1" fill="#d54a49"/>
<rect x="302" y="29" width="6" height="1" fill="#d54a49"/>
<rect x="324" y="29" width="5" height="1" fill="#d54a49"/>
<rect x="333" y="29" width="48" height="1" fill="#d54a49"/>
<rect x="385" y="29" width="48" height="1" fill="#d54a49"/>
<rect x="437" y="29" width="48" height="1" fill="#d54a49"/>
<rect x="489" y="29" width="48" height="1" fill="#d54a49"/>
<rect x="541" y="29" width="48" height="1" fill="#d54a49"/>
<rect x="50" y="30" width="48" height="1" fill="#cd5958"/>
<rect x="102" y="30" width="48" height="1" fill="#cd5958"/>
<rect x="229" y="30" width="48" height="1" fill="#cd5958"/>
<rect x="281" y="30" width="5" height="1" fill="#cd5958"/>
<rect x="302" y="30" width="6" height="1" fill="#cd5958"/>
<rect x="324" y="30" width="5" height="1" fill="#cd5958"/>
<rect x="333" y="30" width="48" height="1" fill="#cd5958"/>
<rect x="385" y="30" width="48" height="1" fill="#cd5958"/>
<rect x="437" y="30" width="48" height="1" fill="#cd5958"/>
<rect x="489" y="30" width="48" height="1" fill="#cd5958"/>
<rect x="541" y="30" width="48" height="1" fill="#cd5958"/>
<rect x="50" y="31" width="47" height="1" fill="#c66665"/>
<rect x="102" y="31" width="48" height="1" fill="#c66665"/>
<rect x="229" y="31" width="48" height="1" fill="#c66665"/>
<rect x="281" y="31" width="5" height="1" fill="#c66665"/>
<rect x="302" y="31" width="6" height="1" fill="#c66665"/>
<rect x="324" y="31" width="5" height="1" fill="#c66665"/>
<rect x="333" y="31" width="48" height="1" fill="#c66665"/>
<rect x="385" y="31" width="48" height="1" fill="#c66665"/>
<rect x="437" y="31" width="47" height="1" fill="#c66665"/>
<rect x="489" y="31" width="48" height="1" fill="#c66665"/>
<rect x="541" y="31" width="47" height="1" fill="#c66665"/>
<rect x="50" y="32" width="5" height="1" fill="#be7372"/>
<rect x="89" y="32" width="5" height="1" fill="#be7372"/>
<rect x="102" y="32" width="5" height="1" fill="#be7372"/>
<rect x="272" y="32" width="5" height="1" fill="#be7372"/>
<rect x="281" y="32" width="5" height="1" fill="#be7372"/>
<rect x="302" y="32" width="6" height="1" fill="#be7372"/>
<rect x="324" y="32" width="5" height="1" fill="#be7372"/>
<rect x="333" y="32" width="5" height="1" fill="#be7372"/>
<rect x="385" y="32" width="5" height="1" fill="#be7372"/>
<rect x="437" y="32" width="5" height="1" fill="#be7372"/>
<rect x="489" y="32" width="5" height="1" fill="#be7372"/>
<rect x="541" y="32" width="5" height="1" fill="#be7372"/>
<rect x="580" y="32" width="5" height="1" fill="#be7372"/>
<rect x="50" y="33" width="5" height="1" fill="#b68281"/>
<rect x="89" y="33" width="6" height="1" fill="#b68281"/>
<rect x="102" y="33" width="5" height="1" fill="#b68281"/>
<rect x="272" y="33" width="5" height="1" fill="#b68281"/>
<rect x="281" y="33" width="5" height="1" fill="#b68281"/>
<rect x="302" y="33" width="6" height="1" fill="#b68281"/>
<rect x="324" y="33" width="5" height="1" fill="#b68281"/>
<rect x="333" y="33" width="5" height="1" fill="#b68281"/>
<rect x="385" y="33" width="5" height="1" fill="#b68281"/>
<rect x="437" y="33" width="5" height="1" fill="#b68281"/>
<rect x="489" y="33" width="5" height="1" fill="#b68281"/>
<rect x="541" y="33" width="5" height="1" fill="#b68281"/>
<rect x="580" y="33" width="6" height="1" fill="#b68281"/>
<rect x="50" y="34" width="5" height="1" fill="#ad918f"/>
<rect x="90" y="34" width="6" height="1" fill="#ad918f"/>
<rect x="102" y="34" width="48" height="1" fill="#ad918f"/>
<rect x="229" y="34" width="48" height="1" fill="#ad918f"/>
<rect x="281" y="34" width="5" height="1" fill="#ad918f"/>
<rect x="302" y="34" width="6" height="1" fill="#ad918f"/>
<rect x="323" y="34" width="6" height="1" fill="#ad918f"/>
<rect x="333" y="34" width="48" height="1" fill="#ad918f"/>
<rect x="385" y="34" width="48" height="1" fill="#ad918f"/>
<rect x="437" y="34" width="5" height="1" fill="#ad918f"/>
<rect x="489" y="34" width="48" height="1" fill="#ad918f"/>
<rect x="541" y="34" width="5" height="1" fill="#ad918f"/>
<rect x="581" y="34" width="6" height="1" fill="#ad918f"/>
<rect x="50" y="35" width="5" height="1" fill="#a59f9e"/>
<rect x="91" y="35" width="5" height="1" fill="#a59f9e"/>
<rect x="102" y="35" width="48" height="1" fill="#a59f9e"/>
<rect x="229" y="35" width="48" height="1" fill="#a59f9e"/>
<rect x="281" y="35" width="48" height="1" fill="#a59f9e"/>
<rect x="333" y="35" width="48" height="1" fill="#a59f9e"/>
<rect x="385" y="35" width="48" height="1" fill="#a59f9e"/>
<rect x="437" y="35" width="5" height="1" fill="#a59f9e"/>
<rect x="489" y="35" width="48" height="1" fill="#a59f9e"/>
<rect x="541" y="35" width="5" height="1" fill="#a59f9e"/>
<rect x="582" y="35" width="5" height="1" fill="#a59f9e"/>
<rect x="50" y="36" width="5" height="1" fill="#9dadac"/>
<rect x="91" y="36" width="6" height="1" fill="#9dadac"/>
<rect x="102" y="36" width="48" height="1" fill="#9dadac"/>
<rect x="229" y="36" width="48" height="1" fill="#9dadac"/>
<rect x="281" y="36" width="48" height="1" fill="#9dadac"/>
<rect x="333" y="36" width="48" height="1" fill="#9dadac"/>
<rect x="385" y="36" width="48" height="1" fill="#9dadac"/>
<rect x="437" y="36" width="5" height="1" fill="#9dadac"/>
<rect x="489" y="36" width="48" height="1" fill="#9dadac"/>
<rect x="541" y="36" width="5" height="1" fill="#9dadac"/>
<rect x="582" y="36" width="6" height="1" fill="#9dadac"/>
<rect x="50" y="37" width="5" height="1" fill="#96bab8"/>
<rect x="92" y="37" width="5" height="1" fill="#96bab8"/>
<rect x="103" y="37" width="47" height="1" fill="#96bab8"/>
<rect x="229" y="37" width="48" height="1" fill="#96bab8"/>
<rect x="281" y="37" width="48" height="1" fill="#96bab8"/>
<rect x="334" y="37" width="47" height="1" fill="#96bab8"/>
<rect x="386" y="37" width="47" height="1" fill="#96bab8"/>
<rect x="437" y="37" width="5" height="1" fill="#96bab8"/>
<rect x="490" y="37" width="47" height="1" fill="#96bab8"/>
<rect x="541" y="37" width="5" height="1" fill="#96bab8"/>
<rect x="583" y="37" width="5" height="1" fill="#96bab8"/>
<rect x="50" y="38" width="5" height="1" fill="#90c4c2"/>
<rect x="93" y="38" width="5" height="1" fill="#90c4c2"/>
<rect x="104" y="38" width="46" height="1" fill="#90c4c2"/>
<rect x="229" y="38" width="47" height="1" fill="#90c4c2"/>
<rect x="281" y="38" width="47" height="1" fill="#90c4c2"/>
<rect x="335" y="38" width="46" height="1" fill="#90c4c2"/>
<rect x="387" y="38" width="46" height="1" fill="#90c4c2"/>
<rect x="437" y="38" width="5" height="1" fill="#90c4c2"/>
<rect x="491" y="38" width="46" height="1" fill="#90c4c2"/>
<rect x="541" y="38" width="5" height="1" fill="#90c4c2"/>
<rect x="584" y="38" width="5" height="1" fill="#90c4c2"/>
<defs>
  <linearGradient id="title-chevron-top" x1="0" y1="0" x2="0" y2="1">
    <stop offset="0" stop-color="#ff0000"/>
    <stop offset="1" stop-color="#ee2020"/>
  </linearGradient>
  <linearGradient id="title-chevron-middle" x1="0" y1="0" x2="0" y2="1">
    <stop offset="0" stop-color="#d54a49"/>
    <stop offset="1" stop-color="#a5a09f"/>
  </linearGradient>
  <linearGradient id="title-chevron-lower" x1="0" y1="0" x2="0" y2="1">
    <stop offset="0" stop-color="#b8acab"/>
    <stop offset="1" stop-color="#90ccca"/>
  </linearGradient>
</defs>
<path d="M151 30 L176 48 L181 48 L204 30 L204 36 L182 54 L175 54 L151 36 Z" transform="translate(3 -16)" fill="url(#title-chevron-top)"/>
<path d="M151 30 L176 48 L181 48 L204 30 L204 36 L182 54 L175 54 L151 36 Z" transform="translate(3 -8)" fill="url(#title-chevron-middle)"/>
<path d="M151 30 L176 48 L181 48 L204 30 L204 36 L182 54 L175 54 L151 36 Z" transform="translate(3 0)" fill="url(#title-chevron-lower)"/>

</svg>
